<svg width="10" height="10" viewBox="0 0 10 10" fill="none" xmlns="http://www.w3.org/2000/svg">
<path d="M1 4.5C0.723858 4.5 0.5 4.72386 0.5 5C0.5 5.27614 0.723858 5.5 1 5.5V4.5ZM8.63636 5.5C8.91251 5.5 9.13636 5.27614 9.13636 5C9.13636 4.72386 8.91251 4.5 8.63636 4.5V5.5ZM9 5L9.40437 5.29409C9.53188 5.11876 9.53188 4.88124 9.40437 4.70591L9 5ZM6.49528 0.705914C6.33286 0.482588 6.02015 0.433213 5.79682 0.595632C5.5735 0.758051 5.52412 1.07076 5.68654 1.29409L6.49528 0.705914ZM5.68654 8.70591C5.52412 8.92924 5.5735 9.24195 5.79682 9.40437C6.02015 9.56679 6.33286 9.51741 6.49528 9.29409L5.68654 8.70591ZM1 5.5H8.63636V4.5H1V5.5ZM9.40437 4.70591L6.49528 0.705914L5.68654 1.29409L8.59563 5.29409L9.40437 4.70591ZM8.59563 4.70591L5.68654 8.70591L6.49528 9.29409L9.40437 5.29409L8.59563 4.70591Z" fill="#B327F5"/>
</svg>
