<svg width="17" height="17" viewBox="0 0 17 17" fill="none" xmlns="http://www.w3.org/2000/svg">
<path d="M3.26221 5.73255C2.70992 5.73255 2.26221 6.18026 2.26221 6.73255C2.26221 7.28483 2.70992 7.73255 3.26221 7.73255V5.73255ZM14.0986 7.73255C14.6509 7.73255 15.0986 7.28483 15.0986 6.73255C15.0986 6.18026 14.6509 5.73255 14.0986 5.73255V7.73255ZM10.1432 4.7901C10.1432 5.34239 10.591 5.7901 11.1432 5.7901C11.6955 5.7901 12.1432 5.34239 12.1432 4.7901H10.1432ZM12.1432 2.84766C12.1432 2.29537 11.6955 1.84766 11.1432 1.84766C10.591 1.84766 10.1432 2.29537 10.1432 2.84766H12.1432ZM5.2176 4.7901C5.2176 5.34239 5.66531 5.7901 6.2176 5.7901C6.76988 5.7901 7.2176 5.34239 7.2176 4.7901H5.2176ZM7.2176 2.84766C7.2176 2.29537 6.76988 1.84766 6.2176 1.84766C5.66531 1.84766 5.2176 2.29537 5.2176 2.84766H7.2176ZM4.24734 4.81888H13.1135V2.81888H4.24734V4.81888ZM13.0986 4.7901V13.5311H15.0986V4.7901H13.0986ZM13.1135 13.5023H4.24734V15.5023H13.1135V13.5023ZM4.26221 13.5311V4.7901H2.26221V13.5311H4.26221ZM4.24734 13.5023C4.24552 13.5023 4.2466 13.5021 4.24875 13.503C4.25028 13.5037 4.25157 13.5045 4.25281 13.5058C4.25405 13.507 4.25642 13.5098 4.25862 13.5149C4.26113 13.5207 4.26221 13.5269 4.26221 13.5311H2.26221C2.26221 14.6331 3.16443 15.5023 4.24734 15.5023V13.5023ZM13.0986 13.5311C13.0986 13.5269 13.0997 13.5207 13.1022 13.5149C13.1044 13.5098 13.1068 13.507 13.108 13.5058C13.1093 13.5045 13.1106 13.5037 13.1121 13.503C13.1142 13.5021 13.1153 13.5023 13.1135 13.5023V15.5023C14.1964 15.5023 15.0986 14.6331 15.0986 13.5311H13.0986ZM13.1135 4.81888C13.1153 4.81888 13.1142 4.81907 13.1121 4.81817C13.1106 4.81754 13.1093 4.81668 13.108 4.81546C13.1068 4.81423 13.1044 4.81146 13.1022 4.80633C13.0997 4.80049 13.0986 4.79429 13.0986 4.7901H15.0986C15.0986 3.68807 14.1964 2.81888 13.1135 2.81888V4.81888ZM4.24734 2.81888C3.16443 2.81888 2.26221 3.68807 2.26221 4.7901H4.26221C4.26221 4.79429 4.26113 4.80048 4.25862 4.80633C4.25642 4.81146 4.25405 4.81423 4.25281 4.81546C4.25157 4.81668 4.25028 4.81754 4.24875 4.81817C4.2466 4.81907 4.24552 4.81888 4.24734 4.81888V2.81888ZM3.26221 7.73255H14.0986V5.73255H3.26221V7.73255ZM12.1432 4.7901V2.84766H10.1432V4.7901H12.1432ZM7.2176 4.7901V2.84766H5.2176V4.7901H7.2176Z" fill="#858585"/>
<mask id="path-2-inside-1_276_787" fill="white">
<path fill-rule="evenodd" clip-rule="evenodd" d="M6.95646 10.3744C6.95646 10.7767 6.62566 11.1028 6.21761 11.1028C5.80955 11.1028 5.47876 10.7767 5.47876 10.3744C5.47876 9.97212 5.80955 9.646 6.21761 9.646C6.62566 9.646 6.95646 9.97212 6.95646 10.3744ZM9.41928 10.3744C9.41928 10.7767 9.08849 11.1028 8.68043 11.1028C8.27238 11.1028 7.94159 10.7767 7.94159 10.3744C7.94159 9.97212 8.27238 9.646 8.68043 9.646C9.08849 9.646 9.41928 9.97212 9.41928 10.3744ZM11.1433 11.1028C11.5513 11.1028 11.8821 10.7767 11.8821 10.3744C11.8821 9.97212 11.5513 9.646 11.1433 9.646C10.7352 9.646 10.4044 9.97212 10.4044 10.3744C10.4044 10.7767 10.7352 11.1028 11.1433 11.1028Z"/>
</mask>
<path fill-rule="evenodd" clip-rule="evenodd" d="M6.95646 10.3744C6.95646 10.7767 6.62566 11.1028 6.21761 11.1028C5.80955 11.1028 5.47876 10.7767 5.47876 10.3744C5.47876 9.97212 5.80955 9.646 6.21761 9.646C6.62566 9.646 6.95646 9.97212 6.95646 10.3744ZM9.41928 10.3744C9.41928 10.7767 9.08849 11.1028 8.68043 11.1028C8.27238 11.1028 7.94159 10.7767 7.94159 10.3744C7.94159 9.97212 8.27238 9.646 8.68043 9.646C9.08849 9.646 9.41928 9.97212 9.41928 10.3744ZM11.1433 11.1028C11.5513 11.1028 11.8821 10.7767 11.8821 10.3744C11.8821 9.97212 11.5513 9.646 11.1433 9.646C10.7352 9.646 10.4044 9.97212 10.4044 10.3744C10.4044 10.7767 10.7352 11.1028 11.1433 11.1028Z" fill="#858585"/>
<path d="M6.21761 12.1028C7.16449 12.1028 7.95646 11.3423 7.95646 10.3744H5.95646C5.95646 10.2111 6.08683 10.1028 6.21761 10.1028V12.1028ZM4.47876 10.3744C4.47876 11.3423 5.27072 12.1028 6.21761 12.1028V10.1028C6.34839 10.1028 6.47876 10.2111 6.47876 10.3744H4.47876ZM6.21761 8.646C5.27072 8.646 4.47876 9.40648 4.47876 10.3744H6.47876C6.47876 10.5378 6.34839 10.646 6.21761 10.646V8.646ZM7.95646 10.3744C7.95646 9.40648 7.16449 8.646 6.21761 8.646V10.646C6.08683 10.646 5.95646 10.5378 5.95646 10.3744H7.95646ZM8.68043 12.1028C9.62732 12.1028 10.4193 11.3423 10.4193 10.3744H8.41928C8.41928 10.2111 8.54965 10.1028 8.68043 10.1028V12.1028ZM6.94159 10.3744C6.94159 11.3423 7.73355 12.1028 8.68043 12.1028V10.1028C8.81121 10.1028 8.94159 10.2111 8.94159 10.3744H6.94159ZM8.68043 8.646C7.73355 8.646 6.94159 9.40648 6.94159 10.3744H8.94159C8.94159 10.5378 8.81121 10.646 8.68043 10.646V8.646ZM10.4193 10.3744C10.4193 9.40648 9.62732 8.646 8.68043 8.646V10.646C8.54965 10.646 8.41928 10.5378 8.41928 10.3744H10.4193ZM10.8821 10.3744C10.8821 10.2111 11.0125 10.1028 11.1433 10.1028V12.1028C12.0901 12.1028 12.8821 11.3423 12.8821 10.3744H10.8821ZM11.1433 10.646C11.0125 10.646 10.8821 10.5378 10.8821 10.3744H12.8821C12.8821 9.40648 12.0901 8.646 11.1433 8.646V10.646ZM11.4044 10.3744C11.4044 10.5378 11.274 10.646 11.1433 10.646V8.646C10.1964 8.646 9.40441 9.40648 9.40441 10.3744H11.4044ZM11.1433 10.1028C11.274 10.1028 11.4044 10.2111 11.4044 10.3744H9.40441C9.40441 11.3423 10.1964 12.1028 11.1433 12.1028V10.1028Z" fill="#858585" mask="url(#path-2-inside-1_276_787)"/>
</svg>
