<svg width="49" height="40" viewBox="0 0 49 40" fill="none" xmlns="http://www.w3.org/2000/svg">
<path d="M7.65649 14C7.10421 14 6.65649 14.4477 6.65649 15C6.65649 15.5523 7.10421 16 7.65649 16V14ZM41.344 16C41.8963 16 42.344 15.5523 42.344 15C42.344 14.4477 41.8963 14 41.344 14V16ZM31.1565 10C31.1565 10.5523 31.6042 11 32.1565 11C32.7088 11 33.1565 10.5523 33.1565 10H31.1565ZM33.1565 5C33.1565 4.44772 32.7088 4 32.1565 4C31.6042 4 31.1565 4.44772 31.1565 5H33.1565ZM15.844 10C15.844 10.5523 16.2917 11 16.844 11C17.3963 11 17.844 10.5523 17.844 10H15.844ZM17.844 5C17.844 4.44772 17.3963 4 16.844 4C16.2917 4 15.844 4.44772 15.844 5H17.844ZM10.719 8.5H38.2815V6.5H10.719V8.5ZM40.344 10V32.5H42.344V10H40.344ZM38.2815 34H10.719V36H38.2815V34ZM8.65649 32.5V10H6.65649V32.5H8.65649ZM10.719 34C9.38063 34 8.65649 33.1483 8.65649 32.5H6.65649C6.65649 34.6131 8.67462 36 10.719 36V34ZM40.344 32.5C40.344 33.1483 39.6199 34 38.2815 34V36C40.3259 36 42.344 34.6131 42.344 32.5H40.344ZM38.2815 8.5C39.6199 8.5 40.344 9.35172 40.344 10H42.344C42.344 7.88686 40.3259 6.5 38.2815 6.5V8.5ZM10.719 6.5C8.67462 6.5 6.65649 7.88686 6.65649 10H8.65649C8.65649 9.35172 9.38063 8.5 10.719 8.5V6.5ZM7.65649 16H41.344V14H7.65649V16ZM33.1565 10V5H31.1565V10H33.1565ZM17.844 10V5H15.844V10H17.844Z" fill="#858585"/>
<mask id="path-2-inside-1_228_169" fill="white">
<path fill-rule="evenodd" clip-rule="evenodd" d="M19.1409 24.3745C19.1409 25.41 18.1125 26.2495 16.844 26.2495C15.5755 26.2495 14.5471 25.41 14.5471 24.3745C14.5471 23.339 15.5755 22.4995 16.844 22.4995C18.1125 22.4995 19.1409 23.339 19.1409 24.3745ZM26.7972 24.3745C26.7972 25.41 25.7689 26.2495 24.5004 26.2495C23.2318 26.2495 22.2035 25.41 22.2035 24.3745C22.2035 23.339 23.2318 22.4995 24.5004 22.4995C25.7689 22.4995 26.7972 23.339 26.7972 24.3745ZM32.1563 26.2495C33.4248 26.2495 34.4532 25.41 34.4532 24.3745C34.4532 23.339 33.4248 22.4995 32.1563 22.4995C30.8878 22.4995 29.8594 23.339 29.8594 24.3745C29.8594 25.41 30.8878 26.2495 32.1563 26.2495Z"/>
</mask>
<path fill-rule="evenodd" clip-rule="evenodd" d="M19.1409 24.3745C19.1409 25.41 18.1125 26.2495 16.844 26.2495C15.5755 26.2495 14.5471 25.41 14.5471 24.3745C14.5471 23.339 15.5755 22.4995 16.844 22.4995C18.1125 22.4995 19.1409 23.339 19.1409 24.3745ZM26.7972 24.3745C26.7972 25.41 25.7689 26.2495 24.5004 26.2495C23.2318 26.2495 22.2035 25.41 22.2035 24.3745C22.2035 23.339 23.2318 22.4995 24.5004 22.4995C25.7689 22.4995 26.7972 23.339 26.7972 24.3745ZM32.1563 26.2495C33.4248 26.2495 34.4532 25.41 34.4532 24.3745C34.4532 23.339 33.4248 22.4995 32.1563 22.4995C30.8878 22.4995 29.8594 23.339 29.8594 24.3745C29.8594 25.41 30.8878 26.2495 32.1563 26.2495Z" fill="#858585"/>
<path d="M16.844 27.2495C18.4655 27.2495 20.1409 26.1425 20.1409 24.3745H18.1409C18.1409 24.6776 17.7595 25.2495 16.844 25.2495V27.2495ZM13.5471 24.3745C13.5471 26.1425 15.2225 27.2495 16.844 27.2495V25.2495C15.9285 25.2495 15.5471 24.6776 15.5471 24.3745H13.5471ZM16.844 21.4995C15.2225 21.4995 13.5471 22.6065 13.5471 24.3745H15.5471C15.5471 24.0714 15.9285 23.4995 16.844 23.4995V21.4995ZM20.1409 24.3745C20.1409 22.6065 18.4655 21.4995 16.844 21.4995V23.4995C17.7595 23.4995 18.1409 24.0714 18.1409 24.3745H20.1409ZM24.5004 27.2495C26.1219 27.2495 27.7972 26.1425 27.7972 24.3745H25.7972C25.7972 24.6776 25.4159 25.2495 24.5004 25.2495V27.2495ZM21.2035 24.3745C21.2035 26.1425 22.8788 27.2495 24.5004 27.2495V25.2495C23.5848 25.2495 23.2035 24.6776 23.2035 24.3745H21.2035ZM24.5004 21.4995C22.8788 21.4995 21.2035 22.6065 21.2035 24.3745H23.2035C23.2035 24.0714 23.5848 23.4995 24.5004 23.4995V21.4995ZM27.7972 24.3745C27.7972 22.6065 26.1219 21.4995 24.5004 21.4995V23.4995C25.4159 23.4995 25.7972 24.0714 25.7972 24.3745H27.7972ZM33.4532 24.3745C33.4532 24.6776 33.0718 25.2495 32.1563 25.2495V27.2495C33.7778 27.2495 35.4532 26.1425 35.4532 24.3745H33.4532ZM32.1563 23.4995C33.0718 23.4995 33.4532 24.0714 33.4532 24.3745H35.4532C35.4532 22.6065 33.7778 21.4995 32.1563 21.4995V23.4995ZM30.8594 24.3745C30.8594 24.0714 31.2408 23.4995 32.1563 23.4995V21.4995C30.5348 21.4995 28.8594 22.6065 28.8594 24.3745H30.8594ZM32.1563 25.2495C31.2408 25.2495 30.8594 24.6776 30.8594 24.3745H28.8594C28.8594 26.1425 30.5348 27.2495 32.1563 27.2495V25.2495Z" fill="#858585" mask="url(#path-2-inside-1_228_169)"/>
</svg>
