<svg width="18" height="16" viewBox="0 0 18 16" fill="none" xmlns="http://www.w3.org/2000/svg">
<path d="M13.8 6.60011L17 6.6001L17 2.6001L13.8 2.60011L13.8 6.60011Z" stroke="url(#paint0_linear_309_130)" stroke-linecap="round" stroke-linejoin="round"/>
<path d="M15.3999 6.75928L15.3999 14.7593" stroke="url(#paint1_linear_309_130)" stroke-linecap="round" stroke-linejoin="round"/>
<path d="M7.4001 9.79981L10.6001 9.7998L10.6001 5.79981L7.40009 5.79982L7.4001 9.79981Z" stroke="url(#paint2_linear_309_130)" stroke-linecap="round" stroke-linejoin="round"/>
<path d="M9 10.7593V14.7593" stroke="url(#paint3_linear_309_130)" stroke-linecap="round" stroke-linejoin="round"/>
<path d="M9 1.15918V5.15917" stroke="url(#paint4_linear_309_130)" stroke-linecap="round" stroke-linejoin="round"/>
<path d="M15.3999 1.15918V1.95918" stroke="url(#paint5_linear_309_130)" stroke-linecap="round" stroke-linejoin="round"/>
<path d="M1.0002 13L4.2002 13L4.20019 9.00001L1.00019 9.00001L1.0002 13Z" stroke="url(#paint6_linear_309_130)" stroke-linecap="round" stroke-linejoin="round"/>
<path d="M2.6001 8.99999L2.6001 1" stroke="url(#paint7_linear_309_130)" stroke-linecap="round" stroke-linejoin="round"/>
<path d="M2.6001 14.5998V13.7998" stroke="url(#paint8_linear_309_130)" stroke-linecap="round" stroke-linejoin="round"/>
<defs>
<linearGradient id="paint0_linear_309_130" x1="15.24" y1="7.22973" x2="14.9581" y2="0.147866" gradientUnits="userSpaceOnUse">
<stop stop-color="#FD749B"/>
<stop offset="1" stop-color="#281AC8"/>
</linearGradient>
<linearGradient id="paint1_linear_309_130" x1="15.5573" y1="11.1593" x2="13.7841" y2="11.1663" gradientUnits="userSpaceOnUse">
<stop stop-color="#FD749B"/>
<stop offset="1" stop-color="#281AC8"/>
</linearGradient>
<linearGradient id="paint2_linear_309_130" x1="8.8401" y1="10.4294" x2="8.55815" y2="3.34757" gradientUnits="userSpaceOnUse">
<stop stop-color="#FD749B"/>
<stop offset="1" stop-color="#281AC8"/>
</linearGradient>
<linearGradient id="paint3_linear_309_130" x1="9.15741" y1="12.9593" x2="7.38424" y2="12.9734" gradientUnits="userSpaceOnUse">
<stop stop-color="#FD749B"/>
<stop offset="1" stop-color="#281AC8"/>
</linearGradient>
<linearGradient id="paint4_linear_309_130" x1="9.15741" y1="3.35918" x2="7.38424" y2="3.37329" gradientUnits="userSpaceOnUse">
<stop stop-color="#FD749B"/>
<stop offset="1" stop-color="#281AC8"/>
</linearGradient>
<linearGradient id="paint5_linear_309_130" x1="15.5573" y1="1.59918" x2="13.7868" y2="1.66966" gradientUnits="userSpaceOnUse">
<stop stop-color="#FD749B"/>
<stop offset="1" stop-color="#281AC8"/>
</linearGradient>
<linearGradient id="paint6_linear_309_130" x1="2.4402" y1="13.6296" x2="2.15825" y2="6.54777" gradientUnits="userSpaceOnUse">
<stop stop-color="#FD749B"/>
<stop offset="1" stop-color="#281AC8"/>
</linearGradient>
<linearGradient id="paint7_linear_309_130" x1="2.75751" y1="5.39999" x2="0.984258" y2="5.40705" gradientUnits="userSpaceOnUse">
<stop stop-color="#FD749B"/>
<stop offset="1" stop-color="#281AC8"/>
</linearGradient>
<linearGradient id="paint8_linear_309_130" x1="2.75751" y1="14.2398" x2="0.987036" y2="14.3103" gradientUnits="userSpaceOnUse">
<stop stop-color="#FD749B"/>
<stop offset="1" stop-color="#281AC8"/>
</linearGradient>
</defs>
</svg>
