<svg width="16" height="16" viewBox="0 0 16 16" fill="none" xmlns="http://www.w3.org/2000/svg">
<path d="M5.46364 3.01377L5.71352 2.58069C5.71574 2.58197 5.71729 2.5825 5.71828 2.58276C5.71934 2.58304 5.72048 2.5832 5.72178 2.5832C5.72488 2.5832 5.72831 2.58231 5.73111 2.58073C5.73236 2.58002 5.73333 2.57927 5.73412 2.57849C5.73485 2.57778 5.73586 2.57662 5.73704 2.57458L5.73705 2.57455L6.44995 1.34036L5.46364 3.01377ZM5.46364 3.01377C5.54513 3.06079 5.63401 3.0832 5.72178 3.0832C5.90042 3.0832 6.07424 2.99046 6.17001 2.82464L5.46364 3.01377ZM5.46364 3.01377L5.71373 2.58081C5.70553 2.57607 5.70273 2.56562 5.70747 2.55742L5.70757 2.55724L5.81003 2.3797L6.42844 1.30809M5.46364 3.01377L6.42844 1.30809M6.42844 1.30809L6.44376 1.31694L6.44377 1.31694C6.44765 1.31918 6.45053 1.32287 6.45176 1.32742L6.45177 1.32749C6.45285 1.3315 6.45238 1.33612 6.44998 1.34031L6.42844 1.30809ZM6.33307 1.25301L5.20718 1.65949C2.8593 2.50715 1.08517 4.56361 0.641776 7.07846L6.33307 1.25301ZM6.33307 1.25301L5.20929 0.604009C5.2009 0.599167 5.19052 0.602037 5.18579 0.610158C5.18101 0.618437 5.18391 0.628862 5.19198 0.633519L5.19206 0.633568L5.32086 0.707963L6.25984 1.25034L5.23765 1.61226C2.8568 2.4552 1.05568 4.53382 0.608141 7.07254L0.608123 7.07264C0.391394 8.30061 0.501887 9.56586 0.926958 10.7311L0.457493 10.9024L0.926959 10.7311C0.927893 10.7337 0.928819 10.7351 0.929502 10.736C0.930284 10.737 0.931373 10.7381 0.932895 10.7391C0.936335 10.7415 0.940183 10.7425 0.943113 10.7425C0.944346 10.7425 0.9462 10.7423 0.948866 10.7413L6.33307 1.25301ZM0.959154 10.7194L0.959138 10.7194C0.535709 9.55878 0.42622 8.30007 0.641762 7.07854L0.959154 10.7194ZM0.959154 10.7194C0.962339 10.7282 0.957911 10.738 0.948879 10.7413L0.959154 10.7194Z" stroke="white"/>
<path d="M13.0297 12.8421L13.0297 12.8421C13.0223 12.8359 13.0116 12.8369 13.0056 12.8441L13.0055 12.8442C11.3866 14.7701 8.8452 15.6955 6.36944 15.2585C5.16764 15.0466 4.04699 14.5256 3.11461 13.7605L2.15578 12.9736L2.15527 14.2819V14.2819C2.15527 14.2913 2.16285 14.299 2.17239 14.299L13.0297 12.8421ZM13.0297 12.8421C13.0322 12.8442 13.0333 12.8458 13.0339 12.8471C13.0348 12.8488 13.0355 12.851 13.0357 12.8537C13.0359 12.8564 13.0356 12.8587 13.0351 12.8605C13.0347 12.8618 13.0339 12.8636 13.0318 12.8661L13.0317 12.8662C11.6721 14.4835 9.66217 15.3992 7.58627 15.3992C7.17971 15.3992 6.77075 15.364 6.36354 15.2922L6.3635 15.2922C5.12235 15.0733 3.96563 14.5262 3.01239 13.7202L2.18998 13.0249L2.18957 14.1018L2.1895 14.2819L13.0297 12.8421ZM1.65851 12.8038H1.66838H1.67235H2.13048H2.13058H2.15851V12.8038V12.8038V12.8038V12.8038V12.8038V12.8038V12.8038V12.8038V12.8038V12.8038V12.8038V12.8038V12.8038V12.8038V12.8038V12.8038V12.8038V12.8038V12.8038V12.8038V12.8038V12.8038V12.8038V12.8038V12.8038V12.8038V12.8038V12.8038V12.8038V12.8038V12.8038V12.8038V12.8038V12.8038V12.8038V12.8038V12.8038V12.8038V12.8038V12.8038V12.8038V12.8038V12.8038V12.8038V12.8038V12.8038V12.8038V12.8038V12.8038V12.8038V12.8038V12.8038V12.8038V12.8038V12.8038V12.8038V12.8038V12.8038V12.8038V12.8039V12.8039V12.8039V12.8039V12.8039V12.8039V12.8039V12.8039V12.8039V12.8039V12.8039V12.8039V12.8039V12.8039V12.8039V12.8039V12.8039V12.8039V12.8039V12.8039V12.8039V12.8039V12.8039V12.8039V12.8039V12.8039V12.8039V12.8039V12.8039V12.8039V12.8039V12.8039V12.8039V12.8039V12.8039V12.8039V12.8039V12.8039V12.8039V12.8039V12.8039V12.8039V12.8039V12.8039V12.8039V12.8039V12.8039V12.8039V12.8039V12.8039V12.8039V12.8039V12.8039V12.8039V12.8039V12.8039V12.8039V12.8039V12.8039V12.8039V12.8039V12.8039V12.8039V12.8039V12.8039V12.8039V12.8039V12.8039V12.8039V12.8039V12.8039V12.8039V12.8039V12.8039V12.8039V12.8039V12.8039V12.8039V12.8039V12.8039V12.8039V12.8039V12.8039V12.8039V12.8039V12.8039V12.8039V12.8039V12.8039V12.8039V12.8039V12.8039V12.8039V12.8039V12.8039V12.8039V12.8039V12.8039V12.8039V12.8039V12.8039V12.8039V12.8039V12.8039V12.8039V12.8039V12.8039V12.8039V12.8039V12.8039V12.8039V12.8039V12.8039V12.8039V12.8039V12.8039V12.8039V12.8039V12.8039V12.8039V12.8039V12.8039V12.8039V12.8039V12.804V12.804V12.804V12.804V12.804V12.804V12.804V12.804V12.804V12.804V12.804V12.804V12.804V12.804V12.804V12.804V12.804V12.804V12.804V12.804V12.804V12.804V12.804V12.804V12.804V12.804V12.804V12.804V12.804V12.804V12.804V12.804V12.804V12.804V12.804V12.804V12.804V12.804V12.804V12.804V12.804V12.804V12.804V12.804V12.804V12.804V12.804V12.804V12.804V12.804V12.804V12.804V12.804V12.804V12.804V12.804V12.804V12.804V12.804V12.804V12.804V12.804V12.804V12.804V12.804V12.804V12.804V12.804V12.804V12.804V12.804V12.804V12.804V12.804V12.804V12.804V12.804V12.804V12.804V12.804V12.804V12.804V12.804V12.804V12.804V12.804V12.804V12.804V12.804V12.804V12.804V12.804V12.804V12.804V12.804V12.804V12.804V12.804V12.804V12.804V12.804V12.804V12.804V12.804V12.804V12.804V12.804V12.804V12.804V12.804V12.804V12.804V12.804V12.804V12.804V12.804V12.804V12.804V12.804V12.804V12.804V12.804V12.804V12.804V12.8041V12.8041V12.8041V12.8041V12.8041V12.8041V12.8041V12.8041V12.8041V12.8041V12.8041V12.8041V12.8041V12.8041V12.8041V12.8041V12.8041V12.8041V12.8041V12.8041V12.8041V12.8041V12.8041V12.8041V12.8041V12.8041V12.8041V12.8041V12.8041V12.8041V12.8041V12.8041V12.8041V12.8041V12.8041V12.8041V12.8041V12.8041V12.8041V12.8041V12.8041V12.8041V12.8041V12.8041V12.8041V12.8041V12.8041V12.8041V12.8041V12.8041V12.8041V12.8041V12.8041V12.8041V12.8041V12.8041V12.8041V12.8041V12.8041V12.8041V12.8041V12.8041V12.8041V12.8041V12.8041V12.8041V12.8041V12.8041V12.8041V12.8041V12.8041V12.8041V12.8041V12.8041V12.8041V12.8041V12.8041V12.8041V12.8041V12.8041V12.8041V12.8041V12.8041V12.8041V12.8041V12.8041V12.8041V12.8041V12.8041V12.8041V12.8041V12.8041V12.8041V12.8041V12.8041V12.8041V12.8041V12.8041V12.8041V12.8041V12.8041V12.8041V12.8041V12.8041V12.8041V12.8041V12.8041V12.8041V12.8041V12.8041V12.8041V12.8041V12.8041V12.8041V12.8041V12.8041V12.8041V12.8041V12.8041V12.8041V12.8041V12.8041V12.8041V12.8042V12.8042V12.8042V12.8042V12.8042V12.8042V12.8042V12.8042V12.8042V12.8042V12.8042V12.8042V12.8042V12.8042V12.8042V12.8042V12.8042V12.8042V12.8042V12.8042V12.8042V12.8042V12.8042V12.8042V12.8042V12.8042V12.8042V12.8042V12.8042V12.8042V12.8042V12.8042V12.8042V12.8042V12.8042V12.8042V12.8042V12.8042V12.8042V12.8042V12.8042V12.8042V12.8042V12.8042V12.8042V12.8042V12.8042V12.8042V12.8042V12.8042V12.8042V12.8042V12.8042V12.8042V12.8042V12.8042V12.8042V12.8042V12.8042V12.8042V12.8042V12.8042V12.8042V12.8042V12.8042V12.8042V12.8042V12.8042V12.8042V12.8042V12.8042V12.8042V12.8042V12.8042V12.8042V12.8042V12.8042V12.8042V12.8042V12.8042V12.8042V12.8042V12.8286L2.15777 12.8362L2.15776 12.8363L2.15615 12.8528L2.15615 12.8528L2.15622 12.8535L2.15614 12.862L2.15607 12.862C2.156 12.8646 2.15591 12.8671 2.15582 12.8694L2.15582 12.8739H3.43179H3.59817C3.60763 12.8739 3.61528 12.8663 3.61528 12.8568C3.61528 12.8473 3.60763 12.8397 3.59817 12.8397H2.22148H2.19792L2.17446 12.8375C2.17162 12.8372 2.16921 12.8376 2.16748 12.8381C2.16611 12.8385 2.16441 12.8392 2.16199 12.8413L2.16193 12.8413C2.15967 12.8432 2.15873 12.8446 2.15811 12.8458C2.15732 12.8473 2.15649 12.8497 2.15618 12.8528L2.15611 12.8535L2.1558 12.8565L2.15578 12.8567L2.15525 12.862L2.15515 12.863L2.1537 12.8731L2.15358 12.8739L1.84068 12.4582C1.73312 12.5483 1.67182 12.673 1.65872 12.8024L1.65851 12.8038ZM1.65851 12.8038V12.8042L2.04537 12.8591L2.02875 12.8567L2.02774 12.8565L1.99569 12.852L1.66767 12.8051L1.66141 12.8042L1.65851 12.8038ZM2.1895 14.2819C2.18947 14.2914 2.1818 14.299 2.17242 14.299L2.1895 14.2819Z" stroke="white"/>
<path d="M14.1142 11.2952L14.2436 10.8122C14.2392 10.811 14.2354 10.8081 14.2331 10.8041L13.5206 9.56953C13.5157 9.56116 13.5187 9.55074 13.5267 9.54611L13.5269 9.54602C13.5297 9.5444 13.5315 9.54397 13.533 9.5438C13.5348 9.54357 13.5371 9.54365 13.5397 9.54436C13.5423 9.54506 13.5444 9.54617 13.5459 9.5473C13.5471 9.5482 13.5486 9.54956 13.5502 9.55242L13.5503 9.55247L13.626 9.68368L14.2717 10.8017L14.2566 10.8105L14.2565 10.8105C14.2539 10.812 14.251 10.8128 14.248 10.8128C14.2468 10.8128 14.2453 10.8127 14.2434 10.8122L14.1142 11.2952ZM14.1142 11.2952C14.1582 11.3069 14.2032 11.3128 14.248 11.3128C14.338 11.3128 14.4273 11.2893 14.5066 11.2435L13.8001 11.0542C13.8687 11.173 13.9817 11.2596 14.1142 11.2952ZM15.4973 10.0742L15.4974 10.0743C15.5021 10.0824 15.4994 10.093 15.491 10.0978L14.334 10.7658L14.5516 9.51962C14.8751 7.66666 14.4589 5.79551 13.3798 4.2544C12.2986 2.71011 10.6783 1.67804 8.82179 1.35097C8.81255 1.34934 8.80632 1.34046 8.80796 1.33116L8.808 1.33092C8.80958 1.32197 8.81826 1.31556 8.82785 1.31724C10.6951 1.64623 12.3201 2.68141 13.4078 4.23468C14.4954 5.78798 14.9125 7.66922 14.5832 9.53691L14.5831 9.53746C14.5798 9.55643 14.5779 9.56549 14.5752 9.57826C14.5725 9.59069 14.5691 9.60665 14.5629 9.63871L14.3561 10.7133L15.3039 10.1662L15.474 10.0681L15.4741 10.068C15.4769 10.0664 15.4787 10.066 15.4802 10.0658C15.482 10.0655 15.4844 10.0656 15.487 10.0663C15.4897 10.067 15.4917 10.0681 15.4932 10.0692C15.4943 10.0701 15.4957 10.0714 15.4973 10.0742Z" stroke="white"/>
</svg>
