<svg width="16" height="16" viewBox="0 0 16 16" fill="none" xmlns="http://www.w3.org/2000/svg">
<path d="M15.5 3.1001L15.5 6.1001L13.3 6.1001L13.3 3.10011L15.5 3.1001Z" stroke="white" stroke-linecap="round" stroke-linejoin="round"/>
<mask id="path-2-inside-1_360_2486" fill="white">
<path d="M14.3994 6.75928L14.3994 14.7593L14.3994 6.75928Z"/>
</mask>
<path d="M15.3994 6.75928C15.3994 6.20699 14.9517 5.75928 14.3994 5.75928C13.8471 5.75928 13.3994 6.20699 13.3994 6.75928H15.3994ZM13.3994 14.7593C13.3994 15.3116 13.8471 15.7593 14.3994 15.7593C14.9517 15.7593 15.3994 15.3116 15.3994 14.7593H13.3994ZM13.3994 6.75928L13.3994 14.7593H15.3994L15.3994 6.75928H13.3994Z" fill="white" mask="url(#path-2-inside-1_360_2486)"/>
<path d="M9.0996 6.29981L9.09961 9.29981L6.89961 9.29981L6.89961 6.29982L9.0996 6.29981Z" stroke="white" stroke-linecap="round" stroke-linejoin="round"/>
<mask id="path-5-inside-2_360_2486" fill="white">
<path d="M8 10.7593L8 14.7593L8 10.7593Z"/>
</mask>
<path d="M9 10.7593C9 10.207 8.55228 9.75928 8 9.75928C7.44772 9.75928 7 10.207 7 10.7593H9ZM7 14.7593C7 15.3116 7.44772 15.7593 8 15.7593C8.55228 15.7593 9 15.3116 9 14.7593H7ZM7 10.7593L7 14.7593H9V10.7593H7Z" fill="white" mask="url(#path-5-inside-2_360_2486)"/>
<mask id="path-7-inside-3_360_2486" fill="white">
<path d="M8 1.15918L8 5.15917L8 1.15918Z"/>
</mask>
<path d="M9 1.15918C9 0.606895 8.55228 0.15918 8 0.15918C7.44772 0.15918 7 0.606895 7 1.15918L9 1.15918ZM7 5.15917C7 5.71146 7.44772 6.15917 8 6.15917C8.55228 6.15917 9 5.71146 9 5.15917H7ZM7 1.15918L7 5.15917H9V1.15918L7 1.15918Z" fill="white" mask="url(#path-7-inside-3_360_2486)"/>
<mask id="path-9-inside-4_360_2486" fill="white">
<path d="M14.3994 1.15918V1.95918V1.15918Z"/>
</mask>
<path d="M15.3994 1.15918C15.3994 0.606895 14.9517 0.15918 14.3994 0.15918C13.8471 0.15918 13.3994 0.606895 13.3994 1.15918L15.3994 1.15918ZM13.3994 1.95918C13.3994 2.51146 13.8471 2.95918 14.3994 2.95918C14.9517 2.95918 15.3994 2.51146 15.3994 1.95918L13.3994 1.95918ZM13.3994 1.15918V1.95918L15.3994 1.95918V1.15918L13.3994 1.15918Z" fill="white" mask="url(#path-9-inside-4_360_2486)"/>
<path d="M2.70019 9.50001L2.70019 12.5L0.500199 12.5L0.500191 9.50001L2.70019 9.50001Z" stroke="white" stroke-linecap="round" stroke-linejoin="round"/>
<mask id="path-12-inside-5_360_2486" fill="white">
<path d="M1.59961 8.99999L1.59961 1L1.59961 8.99999Z"/>
</mask>
<path d="M0.599609 8.99999C0.599609 9.55227 1.04732 9.99999 1.59961 9.99999C2.15189 9.99999 2.59961 9.55227 2.59961 8.99999H0.599609ZM2.59961 1C2.59961 0.447715 2.15189 0 1.59961 0C1.04732 0 0.599609 0.447715 0.599609 1L2.59961 1ZM2.59961 8.99999L2.59961 1L0.599609 1L0.599609 8.99999H2.59961Z" fill="white" mask="url(#path-12-inside-5_360_2486)"/>
<mask id="path-14-inside-6_360_2486" fill="white">
<path d="M1.59961 14.5998L1.59961 13.7998L1.59961 14.5998Z"/>
</mask>
<path d="M0.599609 14.5998C0.599609 15.1521 1.04732 15.5998 1.59961 15.5998C2.15189 15.5998 2.59961 15.1521 2.59961 14.5998H0.599609ZM2.59961 13.7998C2.59961 13.2475 2.15189 12.7998 1.59961 12.7998C1.04732 12.7998 0.599609 13.2475 0.599609 13.7998H2.59961ZM2.59961 14.5998V13.7998H0.599609L0.599609 14.5998H2.59961Z" fill="white" mask="url(#path-14-inside-6_360_2486)"/>
</svg>
